HIERARCHY
ROOT Hips
{
  OFFSET 5.84602e-005 68.8428 3.50346
  CHANNELS 6 Xposition Yposition Zposition Zrotation Xrotation Yrotation
  JOINT Spine
  {
    OFFSET 0 8.597 -4.6522
    CHANNELS 3 Zrotation Xrotation Yrotation
    JOINT Spine1
    {
      OFFSET 0 7.8454 0.4098
      CHANNELS 3 Zrotation Xrotation Yrotation
      JOINT Spine2
      {
        OFFSET 0 9.7078 -2.1609
        CHANNELS 3 Zrotation Xrotation Yrotation
        JOINT Neck
        {
          OFFSET 0 21.8761 -0.4549
          CHANNELS 3 Zrotation Xrotation Yrotation
          JOINT Head
          {
            OFFSET 0 12.3537 3.3602
            CHANNELS 3 Zrotation Xrotation Yrotation
            End Site
            {
              OFFSET 0.0001 18.9506 0.5657
            }
          }
        }
        JOINT LeftShoulder
        {
          OFFSET 2.2086 21.1115 7.2329
          CHANNELS 3 Zrotation Xrotation Yrotation
          JOINT LeftArm
          {
            OFFSET 13.1193 3.0282 -4.8998
            CHANNELS 3 Zrotation Xrotation Yrotation
            JOINT LeftForeArm
            {
              OFFSET 27.4081 -0.0973053 -0.2375
              CHANNELS 3 Zrotation Xrotation Yrotation
              JOINT LeftHand
              {
                OFFSET 22.8641 0.0662994 -0.1369
                CHANNELS 3 Zrotation Xrotation Yrotation
                JOINT LeftHandIndex1
                {
                  OFFSET 8.8614 0.775009 2.4612
                  CHANNELS 3 Zrotation Xrotation Yrotation
                  JOINT LeftHandIndex2
                  {
                    OFFSET 3.3146 -0.808304 0.5841
                    CHANNELS 3 Zrotation Xrotation Yrotation
                    JOINT LeftHandIndex3
                    {
                      OFFSET 2.2628 -0.552002 0.3989
                      CHANNELS 3 Zrotation Xrotation Yrotation
                      End Site
                      {
                        OFFSET 1.6102 -0.4807 0.2612
                      }
                    }
                  }
                }
                JOINT LeftHandMiddle1
                {
                  OFFSET 8.9937 0.895004 0.2143
                  CHANNELS 3 Zrotation Xrotation Yrotation
                  JOINT LeftHandMiddle2
                  {
                    OFFSET 4.0984 0.0113983 -0.0242
                    CHANNELS 3 Zrotation Xrotation Yrotation
                    JOINT LeftHandMiddle3
                    {
                      OFFSET 2.2716 0.00689697 -0.0138001
                      CHANNELS 3 Zrotation Xrotation Yrotation
                      End Site
                      {
                        OFFSET 2.0404 -0.1441 0.0027
                      }
                    }
                  }
                }
                JOINT LeftHandRing1
                {
                  OFFSET 8.5234 0.597198 -2.0164
                  CHANNELS 3 Zrotation Xrotation Yrotation
                  JOINT LeftHandRing2
                  {
                    OFFSET 3.7188 -0.188293 -0.2328
                    CHANNELS 3 Zrotation Xrotation Yrotation
                    JOINT LeftHandRing3
                    {
                      OFFSET 2.1191 -0.106598 -0.1332
                      CHANNELS 3 Zrotation Xrotation Yrotation
                      End Site
                      {
                        OFFSET 1.8737 -0.2304 -0.0886
                      }
                    }
                  }
                }
                JOINT LeftHandPinky1
                {
                  OFFSET 7.9094 -0.601089 -3.4825
                  CHANNELS 3 Zrotation Xrotation Yrotation
                  JOINT LeftHandPinky2
                  {
                    OFFSET 2.2874 -0.477005 -0.6314
                    CHANNELS 3 Zrotation Xrotation Yrotation
                    JOINT LeftHandPinky3
                    {
                      OFFSET 1.6774 -0.349396 -0.4633
                      CHANNELS 3 Zrotation Xrotation Yrotation
                      End Site
                      {
                        OFFSET 1.4888 -0.4091 -0.3416
                      }
                    }
                  }
                }
                JOINT LeftHandThumb1
                {
                  OFFSET 1.833 -1.3875 1.3896
                  CHANNELS 3 Zrotation Xrotation Yrotation
                  JOINT LeftHandThumb2
                  {
                    OFFSET 3.4129 -1.121 2.5732
                    CHANNELS 3 Zrotation Xrotation Yrotation
                    JOINT LeftHandThumb3
                    {
                      OFFSET 2.2474 -0.804199 1.6192
                      CHANNELS 3 Zrotation Xrotation Yrotation
                      End Site
                      {
                        OFFSET 1.6527 -0.5689 1.1317
                      }
                    }
                  }
                }
              }
            }
          }
        }
        JOINT RightShoulder
        {
          OFFSET -2.2086 21.1115 7.2329
          CHANNELS 3 Zrotation Xrotation Yrotation
          JOINT RightArm
          {
            OFFSET -13.1216 3.0287 -4.9007
            CHANNELS 3 Zrotation Xrotation Yrotation
            JOINT RightForeArm
            {
              OFFSET -27.4081 -0.0973053 -0.2375
              CHANNELS 3 Zrotation Xrotation Yrotation
              JOINT RightHand
              {
                OFFSET -22.8641 0.0664063 -0.1369
                CHANNELS 3 Zrotation Xrotation Yrotation
                JOINT RightHandIndex1
                {
                  OFFSET -8.8614 0.774994 2.4612
                  CHANNELS 3 Zrotation Xrotation Yrotation
                  JOINT RightHandIndex2
                  {
                    OFFSET -3.3146 -0.808304 0.5841
                    CHANNELS 3 Zrotation Xrotation Yrotation
                    JOINT RightHandIndex3
                    {
                      OFFSET -2.2628 -0.552002 0.3989
                      CHANNELS 3 Zrotation Xrotation Yrotation
                      End Site
                      {
                        OFFSET -1.6102 -0.4807 0.2612
                      }
                    }
                  }
                }
                JOINT RightHandMiddle1
                {
                  OFFSET -8.9937 0.894989 0.2143
                  CHANNELS 3 Zrotation Xrotation Yrotation
                  JOINT RightHandMiddle2
                  {
                    OFFSET -4.0984 0.0113983 -0.0242
                    CHANNELS 3 Zrotation Xrotation Yrotation
                    JOINT RightHandMiddle3
                    {
                      OFFSET -2.2716 0.00691223 -0.0138001
                      CHANNELS 3 Zrotation Xrotation Yrotation
                      End Site
                      {
                        OFFSET -2.0404 -0.1441 0.0027
                      }
                    }
                  }
                }
                JOINT RightHandRing1
                {
                  OFFSET -8.5234 0.597198 -2.0164
                  CHANNELS 3 Zrotation Xrotation Yrotation
                  JOINT RightHandRing2
                  {
                    OFFSET -3.7188 -0.188309 -0.2328
                    CHANNELS 3 Zrotation Xrotation Yrotation
                    JOINT RightHandRing3
                    {
                      OFFSET -2.1191 -0.106598 -0.1332
                      CHANNELS 3 Zrotation Xrotation Yrotation
                      End Site
                      {
                        OFFSET -1.8737 -0.2304 -0.0886
                      }
                    }
                  }
                }
                JOINT RightHandPinky1
                {
                  OFFSET -7.9094 -0.601105 -3.4825
                  CHANNELS 3 Zrotation Xrotation Yrotation
                  JOINT RightHandPinky2
                  {
                    OFFSET -2.2874 -0.477005 -0.6314
                    CHANNELS 3 Zrotation Xrotation Yrotation
                    JOINT RightHandPinky3
                    {
                      OFFSET -1.6774 -0.349396 -0.4633
                      CHANNELS 3 Zrotation Xrotation Yrotation
                      End Site
                      {
                        OFFSET -1.4888 -0.4091 -0.3416
                      }
                    }
                  }
                }
                JOINT RightHandThumb1
                {
                  OFFSET -1.833 -1.38751 1.3896
                  CHANNELS 3 Zrotation Xrotation Yrotation
                  JOINT RightHandThumb2
                  {
                    OFFSET -3.41299 -1.12099 2.5732
                    CHANNELS 3 Zrotation Xrotation Yrotation
                    JOINT RightHandThumb3
                    {
                      OFFSET -2.24741 -0.804108 1.6192
                      CHANNELS 3 Zrotation Xrotation Yrotation
                      End Site
                      {
                        OFFSET -1.6527 -0.5689 1.1317
                      }
                    }
                  }
                }
              }
            }
          }
        }
      }
    }
  }
  JOINT RightUpLeg
  {
    OFFSET -9.1966 3.8861 -0.7581
    CHANNELS 3 Zrotation Xrotation Yrotation
    JOINT RightLeg
    {
      OFFSET -0.7359 -41.0265 0
      CHANNELS 3 Zrotation Xrotation Yrotation
      JOINT RightFoot
      {
        OFFSET 0 -40.2855 0
        CHANNELS 3 Zrotation Xrotation Yrotation
        JOINT RightToeBase
        {
          OFFSET 0 -5.6122 11.7359
          CHANNELS 3 Zrotation Xrotation Yrotation
          End Site
          {
            OFFSET 0 0 7.8731
          }
        }
      }
    }
  }
  JOINT LeftUpLeg
  {
    OFFSET 9.1965 3.8864 -0.7581
    CHANNELS 3 Zrotation Xrotation Yrotation
    JOINT LeftLeg
    {
      OFFSET 0.7359 -41.0268 0
      CHANNELS 3 Zrotation Xrotation Yrotation
      JOINT LeftFoot
      {
        OFFSET 0 -40.2855 0
        CHANNELS 3 Zrotation Xrotation Yrotation
        JOINT LeftToeBase
        {
          OFFSET 0 -5.6122 11.7359
          CHANNELS 3 Zrotation Xrotation Yrotation
          End Site
          {
            OFFSET 0 0 7.8731
          }
        }
      }
    }
  }
}
MOTION
Frames:	4
Frame Time:	0.0333333
5.84602e-005 68.8428 3.50346 0 0 -0 0 0 -0 0 0 -0 0 0 -0 0 0 -0 0 0 -0 0 0 -0 0 0 -0 0 0 -0 0 0 -0 0 0 -0 0 0 -0 0 0 -0 0 0 -0 -0.0146107 -8.87603e-005 -2.63497e-007 2.99804e-018 -2.42657e-020 -1.42182e-022 0 0 -0 -0.0187562 -0.001176 5.858e-005 5.06224e-018 3.88251e-019 1.21329e-020 0 0 -0 -0.012269 -0.00324817 0.000675346 -1.74678e-018 3.88251e-019 -0 0 0 -0 0 0 -0 0 0 -0 0 0 -0 0 0 -0 0 0 -0 0 0 -0 0 0 -0 0 0 -0 0 0 -0 0 0 -0 0.0149955 -9.10982e-005 2.64101e-007 -9.69331e-018 1.21329e-020 -4.7394e-023 0 0 -0 0.0189956 -0.00119102 -5.96516e-005 -5.41541e-019 0 2.42657e-020 0 0 -0 0.0122698 -0.00324857 -0.000673756 -2.00796e-019 0 -1.94126e-019 0 0 -0 0 0 -0 0 0 -0 3.39842 1.33031 -0.0637918 -5.65207e-008 0.834868 -0.000436188 -3.39935 -2.16518 -0.0642563 -8.89002e-024 -1.18485e-023 -1.48106e-024 -3.39844 1.35642 0.0640283 -3.18788e-007 0.782166 -0.000588827 3.39931 -2.13858 0.0634662 1.1399e-023 0 -0 
35.4161 35.5004 -1.7138 0 25.9502 -0 -0.0526569 1.45163 -0.350654 -0.0964686 2.90361 -0.70031 -0.0964686 2.9036 -0.70031 1.73074e-005 -16.9224 7.88819e-007 2.11285e-007 -0.339825 2.43612e-008 -9.63015 8.0592 -23.6858 -18.83 -5.27051 9.2246 -40.2456 23.9635 -30.3769 43.1729 -6.50105 -9.91421 -4.31348e-007 6.96998e-008 2.8664e-006 3.40164e-006 -1.37683e-007 -3.20378e-007 -8.19159e-007 2.70668e-006 -1.37923e-006 -4.31348e-007 6.96998e-008 2.8664e-006 -0.0145661 -9.17078e-005 3.01718e-006 -6.25226e-007 1.3881e-006 7.43766e-007 -4.31348e-007 6.96998e-008 2.8664e-006 -0.0187717 -0.00117743 5.88674e-005 -6.25211e-007 1.38807e-006 7.43823e-007 -4.31348e-007 6.96998e-008 2.8664e-006 -0.0122884 -0.00325263 0.000671514 -6.25202e-007 1.38812e-006 7.43754e-007 -4.31348e-007 6.96998e-008 2.8664e-006 3.40164e-006 -1.37683e-007 -3.20378e-007 -8.19159e-007 2.70668e-006 -1.37923e-006 8.85359 7.88678 23.1361 18.9809 -5.22092 -9.37234 42.4037 25.3062 31.3725 -43.8325 -6.20708 9.62686 6.36111e-015 -3.18055e-015 6.36111e-015 -2.92217e-007 -7.05208e-007 3.69268e-007 1.59028e-015 6.36111e-015 -0 6.36111e-015 -3.18055e-015 6.36111e-015 0.014984 -9.26297e-005 -7.61796e-006 -3.53113e-031 6.36111e-015 3.18055e-015 6.36111e-015 -3.18055e-015 6.36111e-015 0.0190048 -0.00119176 -6.12684e-005 3.18055e-015 3.18055e-015 -1.59028e-014 6.36111e-015 -3.18055e-015 6.36111e-015 0.0122544 -0.00324557 -0.000675588 1.27222e-014 3.18055e-015 -3.18055e-015 6.36111e-015 -3.18055e-015 6.36111e-015 -2.92217e-007 -7.05208e-007 3.69268e-007 1.59028e-015 6.36111e-015 -0 -7.65458 -31.4529 -17.1601 -97.7875 88.4128 95.7664 15.0605 44.6844 -23.6458 -3.68118e-007 1.27392e-007 -1.10793e-006 7.53724 -31.3977 17.0187 95.3111 88.5112 -93.2361 -14.6743 43.8658 23.3069 3.14727e-006 -3.05436e-006 -1.95488e-006 
41.2116 30.0121 -1.95825 0 28.897 -0 -0.0448319 1.85122 -0.413177 -0.0763579 3.70271 -0.825551 -0.0763582 3.70271 -0.82555 1.74574e-005 -19.8733 1.7951e-006 -2.25349e-007 -0.67568 2.81706e-007 -10.5748 9.08047 -27.6486 -21.8445 -6.1186 10.6315 -44.01 26.2978 -36.1237 49.4732 -7.4901 -11.4243 -5.77622e-007 -1.03104e-006 3.09655e-006 1.20368e-006 -3.04856e-007 -3.94604e-006 -5.77622e-007 -1.03104e-006 3.09655e-006 -5.77622e-007 -1.03104e-006 3.09655e-006 -0.0145349 -8.74146e-005 -2.75998e-006 -5.7777e-007 -1.03144e-006 3.09641e-006 -5.77622e-007 -1.03104e-006 3.09655e-006 -0.0187431 -0.00117568 5.39924e-005 -1.98427e-006 1.64308e-007 8.64382e-007 -5.77622e-007 -1.03104e-006 3.09655e-006 -0.0123999 -0.00328169 0.000680647 -5.77668e-007 -1.03141e-006 3.09646e-006 -5.77622e-007 -1.03104e-006 3.09655e-006 1.20368e-006 -3.04856e-007 -3.94604e-006 -5.77622e-007 -1.03104e-006 3.09655e-006 9.69875 8.90018 27.0038 21.9238 -6.0463 -10.9218 46.1762 27.6181 37.3684 -50.2237 -7.1828 11.1111 -1.12624e-006 -8.58477e-007 -1.85046e-006 -6.36111e-015 1.90833e-014 -0 1.12624e-006 8.58478e-007 1.85046e-006 -1.12624e-006 -8.58477e-007 -1.85046e-006 0.0150014 -9.16711e-005 -3.70742e-006 -6.36111e-015 -9.54166e-015 -6.36111e-015 -1.12624e-006 -8.58477e-007 -1.85046e-006 0.0189939 -0.00119108 -6.21665e-005 6.36111e-015 -9.54166e-015 -0 -1.12624e-006 -8.58477e-007 -1.85046e-006 0.0122656 -0.0032461 -0.000672254 -1.12795e-006 -8.58243e-007 -1.85024e-006 -1.12624e-006 -8.58477e-007 -1.85046e-006 -6.36111e-015 1.90833e-014 -0 1.12624e-006 8.58478e-007 1.85046e-006 -10.8583 -34.2493 -20.8079 -171.903 76.5253 169.173 24.4074 51.2223 -32.2431 -8.92843e-008 -1.11872e-007 -4.02109e-007 10.7029 -34.1981 20.6355 172.365 76.6152 -169.584 -23.6576 50.3253 31.5675 2.3222e-007 -2.79913e-007 1.00319e-006 
39.7397 31.1885 -0.926232 0 26.1956 -0 -0.0503749 1.99316 -0.396169 -0.087028 3.98664 -0.791304 -0.0870279 3.98665 -0.791304 1.88656e-005 -19.3967 4.76281e-006 1.52218e-007 -1.01078 -3.07387e-007 -10.3501 8.83294 -26.6394 -21.2253 -5.92474 10.0961 -42.7118 25.4928 -34.3391 47.0533 -7.18971 -10.8323 6.04564e-007 -1.87513e-006 2.21253e-006 3.63943e-006 -7.60761e-007 -9.29565e-007 6.04564e-007 -1.87513e-006 2.21253e-006 6.04564e-007 -1.87513e-006 2.21253e-006 -0.0145754 -9.12466e-005 7.83862e-006 6.05461e-007 -1.87541e-006 2.21229e-006 6.04564e-007 -1.87513e-006 2.21253e-006 -0.0187461 -0.00117833 6.34362e-005 6.05737e-007 -1.87542e-006 2.21221e-006 6.04564e-007 -1.87513e-006 2.21253e-006 -0.0121385 -0.00321757 0.000669132 6.05361e-007 -1.87517e-006 2.21227e-006 6.04564e-007 -1.87513e-006 2.21253e-006 3.63943e-006 -7.60761e-007 -9.29565e-007 6.04564e-007 -1.87513e-006 2.21253e-006 9.49872 8.65384 26.0189 21.1807 -5.83785 -10.5277 44.7295 26.7162 35.4354 -47.7319 -6.93177 10.5621 -1.59028e-015 6.36111e-015 -3.18055e-015 5.67049e-007 -9.26418e-007 -3.1636e-006 -1.59028e-015 0 -3.18055e-015 -1.59028e-015 6.36111e-015 -3.18055e-015 0.0150209 -9.27215e-005 -1.4291e-007 -3.18055e-015 9.54166e-015 -3.18055e-015 -1.59028e-015 6.36111e-015 -3.18055e-015 0.0190036 -0.00119585 -5.97391e-005 -9.32786e-007 -1.12815e-006 -1.75726e-006 -1.59028e-015 6.36111e-015 -3.18055e-015 0.012285 -0.00325528 -0.000678139 1.59028e-015 -6.36111e-015 -0 -1.59028e-015 6.36111e-015 -3.18055e-015 5.67049e-007 -9.26418e-007 -3.1636e-006 -1.59028e-015 0 -3.18055e-015 -9.5198 -30.5183 -19.0878 -169.029 80.8396 166.555 21.6757 49.6494 -29.7258 -2.72429e-008 -2.71736e-008 -9.95328e-008 9.37931 -30.4859 18.9312 169.647 80.9226 -167.118 -21.0406 48.7668 29.1571 5.99989e-007 1.32604e-007 1.09687e-006 
